<mxfile host="65bd71144e">
    <diagram id="58XMA-p-C20267B4mfxz" name="PÃ¡gina-1">
        <mxGraphModel dx="662" dy="461" grid="1" gridSize="10" guides="1" tooltips="1" connect="1" arrows="1" fold="1" page="1" pageScale="1" pageWidth="850" pageHeight="1100" math="0" shadow="0">
            <root>
                <mxCell id="0"/>
                <mxCell id="1" parent="0"/>
                <mxCell id="18" style="edgeStyle=none;html=1;exitX=0.5;exitY=1;exitDx=0;exitDy=0;entryX=0.5;entryY=0;entryDx=0;entryDy=0;fontSize=15;fontColor=#000000;" edge="1" parent="1" source="2" target="3">
                    <mxGeometry relative="1" as="geometry"/>
                </mxCell>
                <mxCell id="2" value="&lt;b&gt;&lt;font color=&quot;#000000&quot;&gt;INICIO&lt;/font&gt;&lt;/b&gt;" style="ellipse;whiteSpace=wrap;html=1;fillColor=#66FF66;" parent="1" vertex="1">
                    <mxGeometry x="385.01" y="50" width="70" height="40" as="geometry"/>
                </mxCell>
                <mxCell id="7" value="" style="edgeStyle=none;html=1;fontColor=#000000;" edge="1" parent="1" source="3" target="6">
                    <mxGeometry relative="1" as="geometry"/>
                </mxCell>
                <mxCell id="3" value="&lt;b&gt;&lt;font color=&quot;#000000&quot;&gt;a, b, c&lt;/font&gt;&lt;/b&gt;" style="shape=parallelogram;perimeter=parallelogramPerimeter;whiteSpace=wrap;html=1;fixedSize=1;fillColor=#00CCCC;" parent="1" vertex="1">
                    <mxGeometry x="377.5" y="120" width="85" height="30" as="geometry"/>
                </mxCell>
                <mxCell id="9" style="edgeStyle=none;html=1;exitX=0;exitY=0.5;exitDx=0;exitDy=0;entryX=0.5;entryY=0;entryDx=0;entryDy=0;fontColor=#000000;" edge="1" parent="1" source="6" target="8">
                    <mxGeometry relative="1" as="geometry">
                        <Array as="points">
                            <mxPoint x="265" y="235"/>
                        </Array>
                    </mxGeometry>
                </mxCell>
                <mxCell id="11" style="edgeStyle=none;html=1;exitX=1;exitY=0.5;exitDx=0;exitDy=0;entryX=0.5;entryY=0;entryDx=0;entryDy=0;fontColor=#000000;" edge="1" parent="1" source="6" target="10">
                    <mxGeometry relative="1" as="geometry">
                        <Array as="points">
                            <mxPoint x="585" y="235"/>
                        </Array>
                    </mxGeometry>
                </mxCell>
                <mxCell id="6" value="&lt;font color=&quot;#000000&quot;&gt;&lt;b&gt;a + b &amp;gt; c and&lt;br&gt;a +c b &amp;gt; and&lt;br&gt;b + c&amp;nbsp; &amp;gt; a&lt;/b&gt;&lt;br&gt;&lt;/font&gt;" style="rhombus;whiteSpace=wrap;html=1;fillColor=#d80073;fontColor=#ffffff;strokeColor=#A50040;" vertex="1" parent="1">
                    <mxGeometry x="359.38" y="180" width="121.25" height="110" as="geometry"/>
                </mxCell>
                <mxCell id="8" value="&lt;b&gt;&lt;font color=&quot;#000000&quot;&gt;No se puede formar un triangulo&lt;/font&gt;&lt;/b&gt;" style="shape=document;whiteSpace=wrap;html=1;boundedLbl=1;fillColor=#fad9d5;strokeColor=#ae4132;" vertex="1" parent="1">
                    <mxGeometry x="185" y="280" width="160" height="60" as="geometry"/>
                </mxCell>
                <mxCell id="10" value="&lt;b&gt;&lt;font color=&quot;#000000&quot;&gt;si se puede formar un triangulo&lt;/font&gt;&lt;/b&gt;" style="shape=document;whiteSpace=wrap;html=1;boundedLbl=1;fillColor=#fad9d5;strokeColor=#ae4132;" vertex="1" parent="1">
                    <mxGeometry x="505" y="280" width="160" height="60" as="geometry"/>
                </mxCell>
                <mxCell id="12" value="&lt;b&gt;&lt;font color=&quot;#ffffff&quot;&gt;Falso&lt;/font&gt;&lt;/b&gt;" style="text;html=1;align=center;verticalAlign=middle;resizable=0;points=[];autosize=1;strokeColor=none;fillColor=none;fontColor=#000000;" vertex="1" parent="1">
                    <mxGeometry x="295" y="215" width="50" height="30" as="geometry"/>
                </mxCell>
                <mxCell id="14" value="&lt;b&gt;Verdadero&lt;/b&gt;" style="text;html=1;align=center;verticalAlign=middle;resizable=0;points=[];autosize=1;strokeColor=none;fillColor=none;fontColor=#FFFFFF;" vertex="1" parent="1">
                    <mxGeometry x="495" y="215" width="80" height="30" as="geometry"/>
                </mxCell>
                <mxCell id="15" value="" style="endArrow=none;html=1;fontColor=#FFFFFF;exitX=0.5;exitY=0.85;exitDx=0;exitDy=0;exitPerimeter=0;entryX=0.506;entryY=0.867;entryDx=0;entryDy=0;entryPerimeter=0;" edge="1" parent="1" source="8" target="10">
                    <mxGeometry width="50" height="50" relative="1" as="geometry">
                        <mxPoint x="415" y="300" as="sourcePoint"/>
                        <mxPoint x="465" y="250" as="targetPoint"/>
                        <Array as="points">
                            <mxPoint x="265" y="380"/>
                            <mxPoint x="586" y="380"/>
                        </Array>
                    </mxGeometry>
                </mxCell>
                <mxCell id="17" value="&lt;b&gt;&lt;font color=&quot;#000000&quot; style=&quot;font-size: 15px;&quot;&gt;r&lt;/font&gt;&lt;/b&gt;" style="shape=document;whiteSpace=wrap;html=1;boundedLbl=1;fillColor=#e6d0de;gradientColor=#d5739d;strokeColor=#996185;" vertex="1" parent="1">
                    <mxGeometry x="390.01" y="410" width="60" height="50" as="geometry"/>
                </mxCell>
                <mxCell id="19" value="" style="endArrow=classic;html=1;fontSize=15;fontColor=#000000;entryX=0.5;entryY=0;entryDx=0;entryDy=0;" edge="1" parent="1" target="17">
                    <mxGeometry width="50" height="50" relative="1" as="geometry">
                        <mxPoint x="420" y="380" as="sourcePoint"/>
                        <mxPoint x="480" y="420" as="targetPoint"/>
                    </mxGeometry>
                </mxCell>
                <mxCell id="21" value="&lt;font color=&quot;#000000&quot;&gt;&lt;b&gt;FIN&lt;/b&gt;&lt;/font&gt;" style="ellipse;whiteSpace=wrap;html=1;fillColor=#66FF66;" vertex="1" parent="1">
                    <mxGeometry x="385" y="500" width="70" height="40" as="geometry"/>
                </mxCell>
                <mxCell id="22" value="" style="endArrow=classic;html=1;fontSize=15;fontColor=#000000;exitX=0.517;exitY=0.88;exitDx=0;exitDy=0;exitPerimeter=0;" edge="1" parent="1" source="17" target="21">
                    <mxGeometry width="50" height="50" relative="1" as="geometry">
                        <mxPoint x="430" y="560" as="sourcePoint"/>
                        <mxPoint x="480" y="510" as="targetPoint"/>
                    </mxGeometry>
                </mxCell>
            </root>
        </mxGraphModel>
    </diagram>
</mxfile>